<?xml version="1.0" encoding="UTF-8"?>
<svg xmlns="http://www.w3.org/2000/svg" viewBox="0 0 160 120" width="160" height="120">
<path d="M30 108 C 26 70, 36 40, 29 18" stroke="#4a8a38" stroke-width="3.2" fill="none" stroke-linecap="round"/><path d="M30 108 C 38 72, 44 48, 40 22" stroke="#7ed56a" stroke-width="2.2" fill="none" stroke-linecap="round" opacity=".8"/><path d="M42 108 C 38 70, 48 40, 42 18" stroke="#4a8a38" stroke-width="3.2" fill="none" stroke-linecap="round"/><path d="M42 108 C 50 72, 56 48, 52 22" stroke="#7ed56a" stroke-width="2.2" fill="none" stroke-linecap="round" opacity=".8"/><path d="M54 108 C 50 70, 60 40, 55 18" stroke="#4a8a38" stroke-width="3.2" fill="none" stroke-linecap="round"/><path d="M54 108 C 62 72, 68 48, 64 22" stroke="#7ed56a" stroke-width="2.2" fill="none" stroke-linecap="round" opacity=".8"/><path d="M66 108 C 62 70, 72 40, 65 18" stroke="#4a8a38" stroke-width="3.2" fill="none" stroke-linecap="round"/><path d="M66 108 C 74 72, 80 48, 76 22" stroke="#7ed56a" stroke-width="2.2" fill="none" stroke-linecap="round" opacity=".8"/><path d="M78 108 C 74 70, 84 40, 78 18" stroke="#4a8a38" stroke-width="3.2" fill="none" stroke-linecap="round"/><path d="M78 108 C 86 72, 92 48, 88 22" stroke="#7ed56a" stroke-width="2.2" fill="none" stroke-linecap="round" opacity=".8"/><path d="M90 108 C 86 70, 96 40, 91 18" stroke="#4a8a38" stroke-width="3.2" fill="none" stroke-linecap="round"/><path d="M90 108 C 98 72, 104 48, 100 22" stroke="#7ed56a" stroke-width="2.2" fill="none" stroke-linecap="round" opacity=".8"/><path d="M102 108 C 98 70, 108 40, 101 18" stroke="#4a8a38" stroke-width="3.2" fill="none" stroke-linecap="round"/><path d="M102 108 C 110 72, 116 48, 112 22" stroke="#7ed56a" stroke-width="2.2" fill="none" stroke-linecap="round" opacity=".8"/><path d="M114 108 C 110 70, 120 40, 114 18" stroke="#4a8a38" stroke-width="3.2" fill="none" stroke-linecap="round"/><path d="M114 108 C 122 72, 128 48, 124 22" stroke="#7ed56a" stroke-width="2.2" fill="none" stroke-linecap="round" opacity=".8"/><path d="M126 108 C 122 70, 132 40, 127 18" stroke="#4a8a38" stroke-width="3.2" fill="none" stroke-linecap="round"/><path d="M126 108 C 134 72, 140 48, 136 22" stroke="#7ed56a" stroke-width="2.2" fill="none" stroke-linecap="round" opacity=".8"/><ellipse cx="80" cy="112" rx="48" ry="8" fill="#3a6a30" opacity=".18"/>
</svg>
