<?xml version="1.0" encoding="UTF-8"?>
<svg xmlns="http://www.w3.org/2000/svg" viewBox="0 0 220 280" width="220" height="280">
<ellipse cx="110" cy="262" rx="58" ry="12" fill="#1a1820" opacity=".28"/>
<rect x="28" y="70" width="22" height="48" rx="8" fill="#1c1c22"/>
<rect x="170" y="70" width="22" height="48" rx="8" fill="#1c1c22"/>
<rect x="28" y="170" width="22" height="48" rx="8" fill="#1c1c22"/>
<rect x="170" y="170" width="22" height="48" rx="8" fill="#1c1c22"/>
<path d="M40 36 h140 q16 0 16 16 v176 q0 16-16 16 h-140 q-16 0-16-16 v-176 q0-16 16-16z" fill="#2a6fd0"/>
<path d="M40 36 h20 v208 h-20 z" fill="#1e5bb0"/>
<path d="M160 36 h20 v208 h-20 z" fill="#245fc0"/>
<rect x="56" y="56" width="108" height="44" rx="8" fill="#b9e4ff" opacity=".88"/>
<rect x="56" y="168" width="108" height="40" rx="8" fill="#9fd4f2" opacity=".8"/>
<rect x="62" y="108" width="96" height="50" rx="6" fill="#1a4e9a"/>
<g fill="#111318"><rect x="62" y="40" width="6" height="12" rx="1"/><rect x="76" y="40" width="6" height="12" rx="1"/><rect x="90" y="40" width="6" height="12" rx="1"/><rect x="104" y="40" width="6" height="12" rx="1"/><rect x="118" y="40" width="6" height="12" rx="1"/><rect x="132" y="40" width="6" height="12" rx="1"/><rect x="146" y="40" width="6" height="12" rx="1"/></g>
<rect x="48" y="36" width="22" height="10" rx="3" fill="#fff6c9"/>
<rect x="150" y="36" width="22" height="10" rx="3" fill="#fff6c9"/>
<rect x="48" y="228" width="18" height="8" rx="2" fill="#e46d94"/>
<rect x="154" y="228" width="18" height="8" rx="2" fill="#e46d94"/>
<rect x="70" y="118" width="80" height="4" fill="#2f6fd0" opacity=".5"/>
</svg>
